<svg xmlns="http://www.w3.org/2000/svg" class="ionicon" viewBox="0 0 512 512" width="100" height="100" fill="#FFFFFF">
  <path d="M100.3 512H7V191h93.3zm-46.6-364.5c-29.7 0-53.7-24.3-53.7-54.2 0-29.9 24.2-54.2 53.7-54.2s53.7 24.3 53.7 54.2c0 29.9-24.2 54.2-53.7 54.2zm407.3 364.5h-93.3V334.2c0-42.1-15.1-70.8-52.6-70.8-28.7 0-45.6 19.4-53.2 38.2-2.7 6.6-3.4 15.8-3.4 25.1v215.3h-93.3s1.2-348.2 0-384.4h93.3v54.4c-0.2 0.3-0.5 0.6-0.7 0.9h0.7v-0.9c12.4-19.1 34.5-46.5 83.9-46.5 61.1 0 106.6 39.9 106.6 125.5v205.5z"/>
</svg>